# xmcd CD database file
#
# Track frame offsets:
#	150
#	24900
#	48452
#	82121
#	98583
#	135033
#	155921
#	179397
#	199498
#	217112
#	230235
#	245647
#	261097
#	287572
#	307034
#
# Disc length: 4302 seconds
#
# Revision: 1
# Processed by: cddbd v1.5PL3 Copyright (c) Steve Scherf et al.
# Submitted via: CDex 1.51
#
DISCID=dc10cc0f
DTITLE=Blues Paradise - Good Whiskey Blues vol.16
DYEAR=2003
DGENRE=Blues
TTITLE0=The Killer Blues Band - The Midnight River
TTITLE1=Downlchild Blues Band - I'm Mixed Up
TTITLE2=Lazy Poker Blues Band - Downhome Blues
TTITLE3=Hoopsnakes - Nothing At All
TTITLE4=Roy Buchanan - Green Unions (Inst.)
TTITLE5=Jumpin' Johnny Sansone - Trouble
TTITLE6=Downchild Blues Band - Wednesday Night
TTITLE7=The Killer Blues Band - Hand My Head And Cry
TTITLE8=Lazy Poker Blues Band - Born Under A Bad Sign
TTITLE9=Hoopsnakes - I Can't Have You
TTITLE10=Downlchild Blues Band - I Can't Stand It
TTITLE11=Roy Buchanan - Supernova (Inst.)
TTITLE12=Hoopsnakes -  Too Many Rains Days
TTITLE13=Northern Lght - Living Without You
TTITLE14=The Killer Blues Band - Walter Shuffle (Inst.)
EXTD=YEAR: 2003
EXTT0=
EXTT1=
EXTT2=
EXTT3=
EXTT4=
EXTT5=
EXTT6=
EXTT7=
EXTT8=
EXTT9=
EXTT10=
EXTT11=
EXTT12=
EXTT13=
EXTT14=
PLAYORDER=
